<svg id="Layer_1" data-name="Layer 1" xmlns="http://www.w3.org/2000/svg" viewBox="0 0 57.05 79.87"><defs><style>.cls-1{fill:none;stroke:#fff;stroke-miterlimit:10;}</style></defs><title>keg</title><path class="cls-1" d="M2.47,4.77L2.19,30.43s-3.82,2.45,0,4.85V49.54s-3.32,2.21,0,4.38V75.16s0.72,1.74,4.48,2.46,1.83,1.24,22,1.75h0.24c20.18-.51,17.69-1,21.45-1.75s4.48-2.46,4.48-2.46V53.92c3.32-2.17,0-4.38,0-4.38V35.28c3.82-2.39,0-4.85,0-4.85L54.56,4.77S53.44,0.5,28.85.5,2.47,4.77,2.47,4.77Z" transform="translate(0.01 0)"/><path class="cls-1" d="M29.38,4.56c11.32,0,10.79,1,10.79,2.81,0,3.64.45,2.81-10.79,2.81" transform="translate(0.01 0)"/><path class="cls-1" d="M29.38,4.56c-11.32,0-10.78,1-10.78,2.81,0,3.64-.45,2.81,10.78,2.81" transform="translate(0.01 0)"/></svg>