<svg id="Layer_1" data-name="Layer 1" xmlns="http://www.w3.org/2000/svg" viewBox="0 0 54.37 65.43"><defs><style>.cls-1{fill:none;stroke:#fff;stroke-miterlimit:10;}</style></defs><title>mug</title><path class="cls-1" d="M19.48,65s19.2,0,19.2-2.2c0-7.26,0-7.26-1.1-61.59a252.23,252.23,0,0,0-36,0s-1,53.09-1,61.59c0,2.2,19,2.2,19,2.2" transform="translate(-0.04 -0.03)"/><path class="cls-1" d="M37.75,9.63H46s4.15-.22,5.38,5c1.29,5.47,3.41,14.08,2.22,24.26-0.73,6.25-2,7-2,7l-13,8.86" transform="translate(-0.04 -0.03)"/><path class="cls-1" d="M37.92,14.5h6.52s1.92,0,2.43,3c0.44,2.55,3,15.39,1.62,21.93-1,3.21-2.77,4.22-2.77,4.22l-7.25,4" transform="translate(-0.04 -0.03)"/></svg>