<svg id="Layer_1" data-name="Layer 1" xmlns="http://www.w3.org/2000/svg" viewBox="0 0 12.52 12.93"><defs><style>.cls-1{fill:none;stroke:#fff;stroke-miterlimit:10;}</style></defs><title>tap</title><polyline class="cls-1" points="10.34 4.95 10.34 6.1 10.96 6.1 10.96 4.95"/><polyline class="cls-1" points="1.57 4.95 1.57 6.1 2.2 6.1 2.2 4.95"/><path class="cls-1" d="M10.21,2.63L10,1.68A0.61,0.61,0,0,1,10.61.85a0.65,0.65,0,0,1,.64.85l-0.13.94" transform="translate(0 -0.35)"/><path class="cls-1" d="M1.42,2.63l-0.25-1A0.61,0.61,0,0,1,1.82.85a0.65,0.65,0,0,1,.64.85l-0.13.94" transform="translate(0 -0.35)"/><circle class="cls-1" cx="1.87" cy="3.58" r="1.37"/><circle class="cls-1" cx="10.65" cy="3.58" r="1.37"/><line class="cls-1" x1="2.87" y1="2.64" x2="9.65" y2="2.64"/><polyline class="cls-1" points="2.87 4.51 5.46 4.51 5.46 12.43 7.13 12.43 7.13 4.51 9.71 4.51"/></svg>