<svg id="Layer_1" data-name="Layer 1" xmlns="http://www.w3.org/2000/svg" viewBox="0 0 321.32 112.92"><defs><style>.cls-1{fill:none;stroke:#231f20;stroke-miterlimit:10;}</style></defs><title>tapheads</title><polygon class="cls-1" points="291.4 41.61 291.4 56.28 306.11 61 320.82 56.28 320.82 41.61 306.11 36.26 291.4 41.61"/><polyline class="cls-1" points="295.1 40.26 295.1 19.1 300.53 19.1 300.53 11.74 306.11 5.95"/><polyline class="cls-1" points="317.11 40.26 317.11 19.1 311.68 19.1 311.68 11.74 306.11 5.95"/><polyline class="cls-1" points="295.1 57.47 300.6 111.38 311.61 111.38 317.11 57.47"/><polygon class="cls-1" points="251.43 43.62 251.43 62.17 279.77 55.79 279.77 37.24 251.43 43.62"/><polyline class="cls-1" points="255.54 42.69 255.54 18.81 265.6 5.95"/><polyline class="cls-1" points="265.6 5.95 275.66 18.81 275.66 38.16"/><polyline class="cls-1" points="255.54 61.25 255.54 67.57 260.57 71.69 260.57 111.38 270.63 111.38 270.63 71.69 275.66 67.57 275.66 56.72"/><path class="cls-1" d="M291.55,393.76S294,336.88,299.13,317c4-15.58,12.06-23.49,12.06-23.49h-48s8,7.91,12.06,23.49c5.13,19.9,7.58,76.78,7.58,76.78h8.71Z" transform="translate(-71.38 -282.62)"/><path class="cls-1" d="M223.5,293.81L210.95,317.2S223.5,322.91,223.5,336v51.35h17.23V336c0-13.12,12.55-18.83,12.55-18.83l-12.55-23.39H223.5Z" transform="translate(-71.38 -282.62)"/><path class="cls-1" d="M224.71,293.81s7-7.88,14.38,0" transform="translate(-71.38 -282.62)"/><path class="cls-1" d="M194.81,287.83l-25.57,20s-1.66,17.39,4.24,31,5.71,48.79,5.71,48.79h10.58s1.56-37.7,5-49c4.71-15.25,0-50.76,0-50.76" transform="translate(-71.38 -282.62)"/><path class="cls-1" d="M155,391.64C142.89,338.2,155,309,155,309h-24s12.09,29.18,0,82.62h24Z" transform="translate(-71.38 -282.62)"/><circle class="cls-1" cx="71.57" cy="14.48" r="9.27"/><line class="cls-1" x1="67.85" y1="22.98" x2="67.85" y2="26.4"/><line class="cls-1" x1="75.87" y1="22.98" x2="75.87" y2="26.4"/><polygon class="cls-1" points="9.9 55.29 0.5 32.77 0.5 0.5 37.24 0.5 37.24 32.77 29.37 55.29 9.9 55.29"/><line class="cls-1" x1="12.61" y1="55.29" x2="12.61" y2="62.85"/><line class="cls-1" x1="26.68" y1="55.29" x2="26.68" y2="62.85"/><path class="cls-1" d="M91,395H98c3.68,0,0-3.88,0-3.88s-2.55-2.43,0-3.4,2.78-4,2.78-4V345.47H81.29v38.26s0.23,3.07,2.78,4,0,3.4,0,3.4-3.68,3.88,0,3.88H91" transform="translate(-71.38 -282.62)"/></svg>