<svg id="Layer_1" data-name="Layer 1" xmlns="http://www.w3.org/2000/svg" viewBox="0 0 57.04 79.91"><defs><style>.cls-1{fill:none;stroke:#231f20;stroke-miterlimit:10;}</style></defs><title>keg</title><path class="cls-1" d="M101.18,26.61l-0.28,25.66s-3.82,2.45,0,4.85c0,2.89,0,14.26,0,14.26s-3.32,2.21,0,4.38V97s0.72,1.74,4.48,2.46,1.83,1.24,22,1.75h0.24c20.18-.51,17.69-1,21.45-1.75S153.55,97,153.55,97V75.76c3.32-2.17,0-4.38,0-4.38s0-11.37,0-14.26c3.82-2.39,0-4.85,0-4.85l-0.28-25.66s-1.12-4.27-25.71-4.27S101.18,26.61,101.18,26.61Z" transform="translate(-98.71 -21.84)"/><path class="cls-1" d="M128.09,26.4c11.32,0,10.79,1,10.79,2.81,0,3.64.45,2.81-10.79,2.81" transform="translate(-98.71 -21.84)"/><path class="cls-1" d="M128.09,26.4c-11.32,0-10.78,1-10.78,2.81,0,3.64-.45,2.81,10.78,2.81" transform="translate(-98.71 -21.84)"/></svg>
