<svg id="Layer_1" data-name="Layer 1" xmlns="http://www.w3.org/2000/svg" viewBox="0 0 54.41 65.46"><defs><style>.cls-1{fill:none;stroke:#231f20;stroke-miterlimit:10;}</style></defs><title>mug</title><path class="cls-1" d="M237.94,95.7s19.2,0,19.2-2.2c0-7.26,0-7.26-1.1-61.59a252.23,252.23,0,0,0-36,0S219,85,219,93.5c0,2.2,19,2.2,19,2.2" transform="translate(-218.46 -30.74)"/><path class="cls-1" d="M256.21,40.37h8.21s4.15-.22,5.38,5c1.29,5.47,3.41,14.08,2.22,24.26-0.73,6.25-2,7-2,7l-13,8.86" transform="translate(-218.46 -30.74)"/><path class="cls-1" d="M256.38,45.24h6.52s1.92,0,2.43,3c0.44,2.55,3,15.39,1.62,21.93-0.95,3.21-2.77,4.22-2.77,4.22l-7.25,4" transform="translate(-218.46 -30.74)"/></svg>