<svg id="Layer_1" data-name="Layer 1" xmlns="http://www.w3.org/2000/svg" viewBox="0 0 39.11 64.58"><defs><style>.cls-1{fill:none;stroke:#231f20;stroke-miterlimit:10;}</style></defs><title>pint</title><path class="cls-1" d="M186.62,95.24s9.88,0.15,12.52-.36,2.43-3.67,2.43-3.67S202,82,202.8,70s1.24-11.36,2.58-14.61a12.23,12.23,0,0,0,0-8.52,15,15,0,0,1-.57-4.59l0.36-9.34s-18.53-2.82-36.15,0l0.36,9.34a15,15,0,0,1-.57,4.59,12.23,12.23,0,0,0,0,8.52c1.34,3.25,1.76,2.58,2.58,14.61s1.24,21.22,1.24,21.22-0.21,3.15,2.43,3.67,12.52,0.36,12.52.36" transform="translate(-167.55 -31.18)"/></svg>