<svg id="Layer_1" data-name="Layer 1" xmlns="http://www.w3.org/2000/svg" viewBox="0 0 74.87 77.52"><defs><style>.cls-1{fill:none;stroke:#231f20;stroke-miterlimit:10;}</style></defs><title>tap</title><polyline class="cls-1" points="63.57 29.04 63.57 36.41 67.58 36.41 67.58 29.04"/><polyline class="cls-1" points="7.37 29.04 7.37 36.41 11.39 36.41 11.39 29.04"/><path class="cls-1" d="M375.69,23.78l-1.62-6.1s-1.62-5.33,4.2-5.33c5.33,0,4.08,5.48,4.08,5.48l-0.81,6" transform="translate(-312.92 -11.84)"/><path class="cls-1" d="M319.33,23.78l-1.62-6.1s-1.62-5.33,4.2-5.33c5.33,0,4.08,5.48,4.08,5.48l-0.81,6" transform="translate(-312.92 -11.84)"/><circle class="cls-1" cx="9.29" cy="20.24" r="8.79"/><circle class="cls-1" cx="65.58" cy="20.24" r="8.79"/><line class="cls-1" x1="15.72" y1="14.26" x2="59.15" y2="14.26"/><polyline class="cls-1" points="15.72 26.24 32.29 26.24 32.29 77.02 42.98 77.02 42.98 26.24 59.55 26.24"/></svg>